<mxfile host="app.diagrams.net" modified="2023-04-02T16:03:37.348Z" agent="Mozilla/5.0 (Windows NT 10.0; Win64; x64) AppleWebKit/537.36 (KHTML, like Gecko) Chrome/111.0.0.0 Safari/537.36 Edg/111.0.1661.62" etag="3vEvHHDrflHpxmsqPlrS" version="21.1.2" type="device">
  <diagram name="Страница 1" id="Z3GtD6d7_CFJgf-TDuTm">
    <mxGraphModel dx="948" dy="618" grid="1" gridSize="10" guides="1" tooltips="1" connect="1" arrows="1" fold="1" page="1" pageScale="1" pageWidth="827" pageHeight="1169" math="0" shadow="0">
      <root>
        <mxCell id="0" />
        <mxCell id="1" parent="0" />
        <mxCell id="ivpwENjUB2jzBXDWaXir-5" value="" style="edgeStyle=orthogonalEdgeStyle;rounded=0;orthogonalLoop=1;jettySize=auto;html=1;fillColor=#fff2cc;strokeColor=#d6b656;gradientColor=#ffd966;" edge="1" parent="1" source="ivpwENjUB2jzBXDWaXir-1" target="ivpwENjUB2jzBXDWaXir-4">
          <mxGeometry relative="1" as="geometry" />
        </mxCell>
        <mxCell id="ivpwENjUB2jzBXDWaXir-1" value="secondArrayWithIF" style="rounded=1;whiteSpace=wrap;html=1;fillColor=#fff2cc;strokeColor=#d6b656;gradientColor=#ffd966;" vertex="1" parent="1">
          <mxGeometry x="220" y="110" width="120" height="60" as="geometry" />
        </mxCell>
        <mxCell id="ivpwENjUB2jzBXDWaXir-27" value="" style="edgeStyle=orthogonalEdgeStyle;rounded=0;orthogonalLoop=1;jettySize=auto;html=1;fillColor=#fff2cc;strokeColor=#d6b656;gradientColor=#ffd966;" edge="1" parent="1" target="ivpwENjUB2jzBXDWaXir-14">
          <mxGeometry relative="1" as="geometry">
            <mxPoint x="280" y="250" as="sourcePoint" />
          </mxGeometry>
        </mxCell>
        <mxCell id="ivpwENjUB2jzBXDWaXir-4" value="string[] array1&lt;br&gt;string[] array2&lt;br&gt;int count = 0" style="shape=parallelogram;perimeter=parallelogramPerimeter;whiteSpace=wrap;html=1;fixedSize=1;fillColor=#fff2cc;strokeColor=#d6b656;gradientColor=#ffd966;" vertex="1" parent="1">
          <mxGeometry x="220" y="200" width="120" height="60" as="geometry" />
        </mxCell>
        <mxCell id="ivpwENjUB2jzBXDWaXir-14" value="" style="verticalLabelPosition=bottom;verticalAlign=top;html=1;shape=hexagon;perimeter=hexagonPerimeter2;arcSize=6;size=0.27;fillColor=#fff2cc;strokeColor=#d6b656;gradientColor=#ffd966;" vertex="1" parent="1">
          <mxGeometry x="205" y="300" width="150" height="70" as="geometry" />
        </mxCell>
        <mxCell id="ivpwENjUB2jzBXDWaXir-16" value="" style="edgeStyle=orthogonalEdgeStyle;rounded=0;orthogonalLoop=1;jettySize=auto;html=1;fillColor=#fff2cc;strokeColor=#d6b656;gradientColor=#ffd966;" edge="1" parent="1" source="ivpwENjUB2jzBXDWaXir-14" target="ivpwENjUB2jzBXDWaXir-15">
          <mxGeometry relative="1" as="geometry" />
        </mxCell>
        <mxCell id="ivpwENjUB2jzBXDWaXir-18" value="" style="edgeStyle=orthogonalEdgeStyle;rounded=0;orthogonalLoop=1;jettySize=auto;html=1;fillColor=#d5e8d4;strokeColor=#82b366;gradientColor=#97d077;" edge="1" parent="1" source="ivpwENjUB2jzBXDWaXir-15" target="ivpwENjUB2jzBXDWaXir-17">
          <mxGeometry relative="1" as="geometry">
            <Array as="points">
              <mxPoint x="85" y="448" />
            </Array>
          </mxGeometry>
        </mxCell>
        <mxCell id="ivpwENjUB2jzBXDWaXir-28" style="edgeStyle=orthogonalEdgeStyle;rounded=0;orthogonalLoop=1;jettySize=auto;html=1;exitX=0;exitY=0.5;exitDx=0;exitDy=0;entryX=0;entryY=0.75;entryDx=0;entryDy=0;fillColor=#f8cecc;strokeColor=#b85450;gradientColor=#ea6b66;" edge="1" parent="1" source="ivpwENjUB2jzBXDWaXir-15" target="ivpwENjUB2jzBXDWaXir-10">
          <mxGeometry relative="1" as="geometry">
            <Array as="points">
              <mxPoint x="195" y="348" />
            </Array>
          </mxGeometry>
        </mxCell>
        <mxCell id="ivpwENjUB2jzBXDWaXir-15" value="&lt;br&gt;&lt;br&gt;if (array1[i].Length &amp;lt;=3)" style="rhombus;whiteSpace=wrap;html=1;verticalAlign=top;arcSize=6;fillColor=#fff2cc;strokeColor=#d6b656;gradientColor=#ffd966;" vertex="1" parent="1">
          <mxGeometry x="195" y="407.5" width="170" height="80" as="geometry" />
        </mxCell>
        <mxCell id="ivpwENjUB2jzBXDWaXir-19" value="" style="edgeStyle=orthogonalEdgeStyle;rounded=0;orthogonalLoop=1;jettySize=auto;html=1;fillColor=#d5e8d4;strokeColor=#82b366;gradientColor=#97d077;" edge="1" parent="1" source="ivpwENjUB2jzBXDWaXir-17" target="ivpwENjUB2jzBXDWaXir-14">
          <mxGeometry relative="1" as="geometry" />
        </mxCell>
        <mxCell id="ivpwENjUB2jzBXDWaXir-17" value="&lt;br&gt;array2[count] = array1[i]&lt;br&gt;count++" style="whiteSpace=wrap;html=1;verticalAlign=top;arcSize=6;fillColor=#fff2cc;strokeColor=#d6b656;gradientColor=#ffd966;" vertex="1" parent="1">
          <mxGeometry x="10" y="302.5" width="150" height="65" as="geometry" />
        </mxCell>
        <mxCell id="ivpwENjUB2jzBXDWaXir-10" value="for (int i = 0;&lt;br&gt;i &amp;lt; array1.Length;&lt;br&gt;i++)" style="text;html=1;align=center;verticalAlign=middle;whiteSpace=wrap;rounded=0;" vertex="1" parent="1">
          <mxGeometry x="220" y="310" width="120" height="50" as="geometry" />
        </mxCell>
        <mxCell id="ivpwENjUB2jzBXDWaXir-29" value="No" style="text;html=1;align=center;verticalAlign=middle;resizable=0;points=[];autosize=1;fontColor=#b85450;" vertex="1" parent="1">
          <mxGeometry x="190" y="390" width="40" height="30" as="geometry" />
        </mxCell>
        <mxCell id="ivpwENjUB2jzBXDWaXir-30" value="Yes" style="text;html=1;align=center;verticalAlign=middle;resizable=0;points=[];autosize=1;fontColor=#82b366;" vertex="1" parent="1">
          <mxGeometry x="80" y="390" width="40" height="30" as="geometry" />
        </mxCell>
      </root>
    </mxGraphModel>
  </diagram>
</mxfile>
